<svg width="42" height="56" viewBox="0 0 42 56" fill="none" xmlns="http://www.w3.org/2000/svg">
<path fill-rule="evenodd" clip-rule="evenodd" d="M32.3766 38.732C28.0729 43.3032 23.4298 48.2351 21 56C18.5702 48.2351 13.9271 43.3032 9.62336 38.732C4.57846 33.3735 0 28.5104 0 20.16C0 9.31168 10.0473 0 21 0C31.9527 0 42 9.31168 42 20.16C42 28.5104 37.4215 33.3735 32.3766 38.732ZM28.0599 20.972C28.0599 24.8225 24.9133 27.944 21.0319 27.944C17.1504 27.944 14.0039 24.8225 14.0039 20.972C14.0039 17.1215 17.1504 14 21.0319 14C24.9133 14 28.0599 17.1215 28.0599 20.972Z" fill="#D51A1A"/>
</svg>
