<svg width="122" height="40" viewBox="0 0 122 40" fill="none" xmlns="http://www.w3.org/2000/svg">
<g clip-path="url(#clip0_626_8664)">
<path fill-rule="evenodd" clip-rule="evenodd" d="M18.461 21.4468H31.6818C31.7418 21.4468 31.7907 21.5399 31.7907 21.6535V39.9097C31.7907 40.0261 31.7418 40.1192 31.6818 40.1192H5.43331C5.39215 40.1192 5.35727 40.0748 5.33774 40.0148H0V0H18.461V21.4468Z" fill="#1B1918"/>
<path fill-rule="evenodd" clip-rule="evenodd" d="M33.4257 18.6732H20.2076C20.1477 18.6732 20.096 18.5793 20.096 18.4664V0.209557C20.096 0.093842 20.1477 0 20.2076 0H65.1759C65.2359 0 65.2848 0.093842 65.2848 0.209557V18.4664C65.2848 18.5793 65.2359 18.6732 65.1759 18.6732H51.9544V40.1185H33.4257V18.6732Z" fill="#44A611"/>
<path fill-rule="evenodd" clip-rule="evenodd" d="M61.1427 31.7369V30.155C61.7774 30.1197 62.2169 29.8742 62.4562 29.4113C62.6278 29.0889 62.7122 28.5675 62.7122 27.8478V25.47C62.7122 23.9734 62.189 23.1952 61.1427 23.143V21.5554H62.1102C64.0724 21.5554 65.5764 21.8447 66.606 22.4261C67.9439 23.1592 68.6142 24.4328 68.6142 26.2433C68.6142 28.7022 67.2303 30.1959 64.4617 30.7251V30.7773C67.3147 31.188 68.7398 32.3649 68.7398 34.3137C68.7398 34.1768 68.7314 34.4929 68.7154 35.2599C68.6993 35.7919 68.6993 36.2075 68.7154 36.5158C68.767 36.9427 68.8598 37.1551 68.993 37.1551C69.113 37.1551 69.2518 37.0309 69.4129 36.7832C69.5734 36.5377 69.7806 36.4142 70.0317 36.4142C70.2521 36.4142 70.4432 36.4996 70.6037 36.671C70.762 36.8411 70.8436 37.0372 70.8436 37.2581C70.8436 38.1125 70.3693 38.8287 69.4213 39.4101C68.5766 39.9231 67.713 40.1792 66.8327 40.1792C64.9172 40.1792 63.7264 39.4962 63.2493 38.1344C63.2005 37.9799 63.0805 36.6746 62.8949 34.2177C62.7777 32.7374 62.1946 31.9091 61.1427 31.7369ZM60.3579 21.5561V37.3625C60.3579 37.8063 60.5895 38.1429 61.0555 38.375C61.5186 38.6029 61.7502 38.8894 61.7502 39.2323C61.7502 39.7445 61.4126 40.0007 60.7339 40.0007H53.9299C53.2323 40.0007 52.8863 39.7445 52.8863 39.2323C52.8863 38.8901 53.1235 38.6029 53.595 38.375C54.0694 38.1436 54.3066 37.7379 54.3066 37.1558V24.4003C54.3066 23.8351 54.0694 23.4358 53.595 23.1959C53.1235 22.956 52.8863 22.6582 52.8863 22.2998C52.8863 21.8038 53.2323 21.5554 53.9299 21.5554H60.3579V21.5561ZM77.1489 24.552L77.9092 27.706L75.6561 36.2082C75.5717 36.5335 75.5278 36.7981 75.5278 37.002C75.5278 37.4655 75.8166 37.8649 76.3886 38.2064C76.9634 38.5479 77.2493 38.8732 77.2493 39.1794C77.2493 39.7283 76.8273 40.0007 75.9847 40.0007H72.8184C72.0065 40.0007 71.6033 39.7361 71.6033 39.2069C71.6033 38.8125 71.7449 38.5846 72.0337 38.5154C72.7096 38.3277 73.2133 37.9778 73.5516 37.4662C73.772 37.1403 73.9903 36.5504 74.2108 35.6959L77.1489 24.552ZM80.4923 35.389H76.7185L77.2005 33.5178H80.0619L77.5305 23.0943L77.9853 21.5561H83.4053L87.2036 37.1311C87.3563 37.7125 87.6584 38.1372 88.1167 38.4124C88.5198 38.6495 88.7242 38.9063 88.7242 39.1787C88.7242 39.7276 88.2499 40 87.3047 40H81.3294C80.4002 40 79.9343 39.7107 79.9343 39.1293C79.9343 38.8209 80.1142 38.5613 80.4686 38.3475C80.823 38.1344 81.0001 37.8839 81.0001 37.5918C81.0001 37.3025 80.9401 36.9279 80.823 36.465C80.7016 36.1059 80.5928 35.7474 80.4923 35.389ZM97.5874 40H91.1566C90.4619 40 90.1159 39.7438 90.1159 39.2316C90.1159 38.8894 90.353 38.5994 90.8246 38.3602C91.2989 38.1203 91.5333 37.7209 91.5333 37.1558V24.4003C91.5333 23.8189 91.2989 23.4083 90.8246 23.1712C90.353 22.9313 90.1159 22.6392 90.1159 22.3005C90.1159 21.8045 90.4619 21.5561 91.1566 21.5561H97.5874V40ZM98.3973 40V38.4399C99.0893 38.4399 99.5525 38.1944 99.7896 37.6991C99.9752 37.3399 100.067 36.7748 100.067 36.0085V25.5744C100.067 24.8053 99.9745 24.2458 99.7896 23.8874C99.5525 23.3913 99.0893 23.143 98.3973 23.143V21.5554C100.964 21.5554 102.989 22.4593 104.477 24.2705C105.844 25.9441 106.526 28.1124 106.526 30.778C106.526 33.4437 105.844 35.6099 104.477 37.2856C102.989 39.0933 100.964 40 98.3973 40ZM116.454 23.2453V21.5554H121.999V26.4754C121.999 26.9856 121.754 27.2417 121.266 27.2417C120.945 27.2417 120.615 26.9002 120.277 26.2193C119.805 25.2639 119.408 24.6127 119.086 24.2705C118.43 23.5882 117.553 23.2453 116.454 23.2453ZM115.569 40H109.138C108.444 40 108.098 39.7438 108.098 39.2316C108.098 38.8894 108.332 38.5994 108.806 38.3602C109.278 38.1203 109.515 37.7209 109.515 37.1558V24.4003C109.515 23.8189 109.278 23.4083 108.806 23.1712C108.332 22.9313 108.098 22.6392 108.098 22.3005C108.098 21.8045 108.444 21.5561 109.138 21.5561H115.569V40ZM122.176 40H116.454V38.308C117.686 38.308 118.623 37.9411 119.263 37.208C119.601 36.8503 119.967 36.1828 120.354 35.2098C120.64 34.4739 120.953 34.107 121.291 34.107C121.883 34.107 122.177 34.7131 122.177 35.926V40H122.176ZM116.454 31.3404V29.6505C117.046 29.4798 117.476 29.1467 117.746 28.6528C117.899 28.2422 118.054 27.8372 118.215 27.4343C118.376 27.0314 118.624 26.8332 118.961 26.8332C119.433 26.8332 119.67 27.277 119.67 28.1646V32.9548C119.67 33.7732 119.433 34.1839 118.961 34.1839C118.691 34.1839 118.362 33.7732 117.972 32.9548C117.553 32.0678 117.046 31.5309 116.454 31.3404Z" fill="#44A611"/>
</g>
<defs>
<clipPath id="clip0_626_8664">
<rect width="122" height="40" fill="white"/>
</clipPath>
</defs>
</svg>
